<svg xmlns="http://www.w3.org/2000/svg" viewBox="0 0 135.33 27.65"><defs><style>.cls-1{fill:#d70773;}.cls-2,.cls-4{fill:#688ec9;}.cls-2{fill-rule:evenodd;}.cls-3{fill:#7cc7ca;}</style></defs><title>logo</title><g id="Layer_2" data-name="Layer 2"><g id="Layer_1-2" data-name="Layer 1"><path class="cls-1" d="M135.33,9.52v2.7H134V22.28h1.29V25h-6.07v-2.7h1.3V12.22h-1.3V9.52Z"/><path class="cls-1" d="M47.09,25h-3.8l-1.1-3.44H36.7L35.6,25H31.83L37.46,9.52h4.13ZM41.4,18.87l-1.66-5.2a6.26,6.26,0,0,1-.26-1.39h-.09a5.88,5.88,0,0,1-.27,1.35l-1.68,5.24Z"/><path class="cls-1" d="M59.88,12.36H55.47V25H52V12.36H47.59V9.52H59.88Z"/><path class="cls-1" d="M74.93,25h-4l-2.4-4c-.18-.3-.36-.57-.52-.81a6.83,6.83,0,0,0-.5-.61A2,2,0,0,0,67,19.2a1.39,1.39,0,0,0-.6-.14h-.94V25H62V9.52h5.52q5.63,0,5.63,4.2a4.54,4.54,0,0,1-.25,1.5,4.4,4.4,0,0,1-.7,1.23,4.22,4.22,0,0,1-1.1.95,5.36,5.36,0,0,1-1.42.62v.05a2.11,2.11,0,0,1,.66.35,4.16,4.16,0,0,1,.63.57,8.11,8.11,0,0,1,.58.69c.18.25.35.49.5.73ZM65.44,12.13v4.3H67a2.5,2.5,0,0,0,1.8-.65,2.16,2.16,0,0,0,.69-1.63c0-1.35-.81-2-2.43-2Z"/><path class="cls-1" d="M91.52,25H87.73l-1.11-3.44H81.13L80,25H76.26L81.89,9.52H86Zm-5.69-6.11-1.66-5.2a6.26,6.26,0,0,1-.26-1.39h-.09a5.39,5.39,0,0,1-.27,1.35l-1.68,5.24Z"/><path class="cls-1" d="M104.78,9.52,99.45,25h-4L90.24,9.52H94l3.23,10.76a8.21,8.21,0,0,1,.31,1.54h.06a8,8,0,0,1,.34-1.58l3.2-10.72Z"/><path class="cls-1" d="M115.9,25h-9.27V9.52h8.91v2.84h-5.43v3.43h5.06v2.83h-5.06v3.54h5.79Z"/><path class="cls-1" d="M127.59,25h-9.21V9.52h3.49V22.16h5.72Z"/><path class="cls-2" d="M44.21,3.06A2,2,0,0,0,43,2.91l-4.35.9a.28.28,0,0,1-.18,0L33.93,1.34c-.17-.09-.17-.09-.32,0l-.45.38c.62.94,1.23,1.87,1.84,2.82l-3,.66-.24-.15L30,4a.14.14,0,0,0-.09,0l-.41.3s0,0,0,0l.87,1.3,0,0a1.13,1.13,0,0,0,.15.09c.35.1.68.23,1,.31.52.13,1,.24,1.56.34a1.64,1.64,0,0,0,.54,0c1.11-.21,2.22-.44,3.33-.67l5.76-1.18a2.69,2.69,0,0,0,.89-.26,1.94,1.94,0,0,0,.7-.57.59.59,0,0,0,.1-.29C44.5,3.23,44.35,3.13,44.21,3.06Z"/><path class="cls-3" d="M24.44,5h0A13.85,13.85,0,0,0,13.82,0h0L12.24.1c-.21,0-.43,0-.64.09A14.45,14.45,0,0,0,7.51,1.53l0,0-.39.21-.28.16-.22.13-.37.24L6,2.4l-.34.24-.21.16-.17.12A13.81,13.81,0,0,0,3.21,5,15.15,15.15,0,0,0,1.5,7.55,13.86,13.86,0,0,0,0,13.78v.27a.86.86,0,0,1,0,.16,17.44,17.44,0,0,0,.24,2.23c0,.12,0,.23.07.35a13.7,13.7,0,0,0,1.84,4.46A28.9,28.9,0,0,1,25.45,6.34h0c.67,0,1.35-.07,2-.07.86,0,1.72,0,2.56.11A28.36,28.36,0,0,0,24.44,5Z"/><path class="cls-4" d="M26.68,8.73a2.44,2.44,0,0,1-.1-.24l0-.12h0a27.21,27.21,0,0,1,3.78-1.89A28.79,28.79,0,0,0,26,7.31h0l-.56.16h0a29,29,0,0,0-19,18.06A13.83,13.83,0,0,0,27.65,13.82a13.64,13.64,0,0,0-.83-4.71C26.78,9,26.73,8.86,26.68,8.73Z"/></g></g></svg>